<?xml version="1.0" encoding="iso-8859-1"?>
<!-- Generator: Adobe Illustrator 19.0.0, SVG Export Plug-In . SVG Version: 6.00 Build 0)  -->
<svg version="1.1" id="Capa_1" xmlns="http://www.w3.org/2000/svg" xmlns:xlink="http://www.w3.org/1999/xlink" x="0px" y="0px"
	 viewBox="0 0 384 384" style="enable-background:new 0 0 384 384;" xml:space="preserve" fill="white">
<g>
	<g>
		<path d="M368,80h-48V16c0-8.832-7.168-16-16-16H48C21.528,0,0,21.528,0,48v288c0,26.472,21.528,48,48,48h288
			c26.472,0,48-21.528,48-48V96C384,87.168,376.832,80,368,80z M48,352c-8.824,0-16-7.176-16-16V48c0-8.824,7.176-16,16-16h240v64
			v240c0,5.616,1.024,10.984,2.8,16H48z M352,336c0,8.824-7.176,16-16,16c-8.824,0-16-7.176-16-16V112h32V336z"/>
	</g>
</g>
<g>
	<g>
		<path d="M240,80H80c-8.832,0-16,7.168-16,16c0,8.832,7.168,16,16,16h160c8.832,0,16-7.168,16-16C256,87.168,248.832,80,240,80z"/>
	</g>
</g>
<g>
	<g>
		<path d="M208,176H80c-8.832,0-16,7.168-16,16c0,8.832,7.168,16,16,16h128c8.832,0,16-7.168,16-16C224,183.168,216.832,176,208,176
			z"/>
	</g>
</g>
<g>
	<g>
		<path d="M192,224H80c-8.832,0-16,7.168-16,16c0,8.832,7.168,16,16,16h112c8.832,0,16-7.168,16-16C208,231.168,200.832,224,192,224
			z"/>
	</g>
</g>
<g>
	<g>
		<path d="M176,272H80c-8.832,0-16,7.168-16,16c0,8.832,7.168,16,16,16h96c8.832,0,16-7.168,16-16C192,279.168,184.832,272,176,272z
			"/>
	</g>
</g>
<g>
</g>
<g>
</g>
<g>
</g>
<g>
</g>
<g>
</g>
<g>
</g>
<g>
</g>
<g>
</g>
<g>
</g>
<g>
</g>
<g>
</g>
<g>
</g>
<g>
</g>
<g>
</g>
<g>
</g>
</svg>
